<svg xmlns="http://www.w3.org/2000/svg" viewBox="0 0 390 390"><defs><style>.cls-1{fill:#555;}.cls-2,.cls-3,.cls-4{fill:#fff;}.cls-3{font-size:20px;font-family:Avenir-Heavy, Avenir;font-weight:800;letter-spacing:1.2em;}.cls-4{font-size:49px;font-family:Avenir-Light, Avenir;font-weight:300;letter-spacing:0.44em;}</style></defs><title>Logo150 px</title><g id="Layer_2" data-name="Layer 2"><g id="Layer_1-2" data-name="Layer 1"><g id="Logo"><g id="O"><circle class="cls-1" cx="195" cy="195" r="193.5"/><path class="cls-2" d="M195,3A191.93,191.93,0,0,1,330.76,330.76,192,192,0,1,1,120.27,18.09,190.77,190.77,0,0,1,195,3m0-3C87.3,0,0,87.3,0,195S87.3,390,195,390s195-87.3,195-195S302.7,0,195,0Z"/></g><g id="Laptop_Lifestyle" data-name="Laptop Lifestyle"><text id="LIFESTYLE" class="cls-3" transform="translate(52.48 220.98)">LIFESTYLE</text><text id="A_P_T_O_P" data-name="A P T O P" class="cls-4" transform="translate(109.98 192.9)">APTOP</text><path id="L" class="cls-2" d="M78.92,190.07l-31.79-.72L41.7,158.86c-.1-.54-1-.82-1.56-.73h0c-.54.1-1.34.68-1.25,1.22l5.77,32.72a.9.9,0,0,0,1,.82H78.88c.55,0,1-.82,1-1.37v-.19C79.88,190.77,79.48,190.07,78.92,190.07Z"/></g></g></g></g></svg>